<?xml version="1.0" standalone="no"?><!DOCTYPE svg PUBLIC "-//W3C//DTD SVG 1.1//EN" "http://www.w3.org/Graphics/SVG/1.1/DTD/svg11.dtd"><svg width="100%" height="100%" viewBox="0 0 284 284" version="1.1" xmlns="http://www.w3.org/2000/svg" xmlns:xlink="http://www.w3.org/1999/xlink" xml:space="preserve" style="fill-rule:evenodd;clip-rule:evenodd;stroke-linejoin:round;stroke-miterlimit:1.41421;"><g id="logo-shadow-circle"><g><path d="M283.62,141.865c0,-78.277 -63.456,-141.732 -141.732,-141.732c-78.277,0 -141.733,63.455 -141.733,141.732c0,78.277 63.456,141.732 141.733,141.732c78.276,0 141.732,-63.455 141.732,-141.732" style="fill:#f1f2f2;fill-rule:nonzero;"/><path d="M160.429,77.776c-0.027,-0.075 -0.053,-0.152 -0.077,-0.23c-5.323,-15.868 -5.829,-32.547 -1.621,-48.459c-31.477,18.892 -58.765,44.649 -78.439,76.91c-10.099,16.564 -15.95,32.868 -18.237,48.296l106.928,-61.737c-3.742,-4.33 -6.7,-9.305 -8.554,-14.78" style="fill:#ffd600;fill-rule:nonzero;"/><path d="M120.255,251.699c6.89,1.905 14.137,2.944 21.635,2.944c0.024,0 0.05,-0.002 0.077,-0.002c0.024,0 0.051,0.002 0.079,0.002c0.149,0 0.292,-0.011 0.443,-0.011c0.685,0.002 1.368,-0.04 2.055,-0.055c0.522,-0.018 1.048,-0.016 1.567,-0.042c24.603,-1.041 48.165,-13.505 62.53,-34.919c5.309,-7.703 9.305,-16.378 11.693,-25.697l-100.079,57.78Z" style="fill:#ffd600;fill-rule:nonzero;"/><path d="M183.9,104.417c-0.018,-0.011 -0.038,-0.022 -0.055,-0.033c-0.48,-0.287 -0.957,-0.579 -1.441,-0.856c-5.064,-2.893 -9.644,-6.602 -13.421,-10.972l-106.929,61.737c-0.879,5.934 -1.249,11.741 -1.105,17.379c-0.015,0.664 -0.051,1.324 -0.051,1.992c0,6.041 0.683,11.92 1.939,17.583l133.87,-77.288c-3.933,-3.583 -8.218,-6.786 -12.807,-9.542" style="fill:#36383b;fill-rule:nonzero;"/><path d="M222.453,182.001c0.004,-0.046 0.009,-0.095 0.013,-0.144c0.122,-1.229 0.217,-2.466 0.283,-3.713c0.009,-0.161 0.02,-0.325 0.029,-0.486c0.06,-1.273 0.099,-2.551 0.099,-3.837l0,-0.08l0,-0.077c0,-0.056 -0.002,-0.111 -0.002,-0.166c0.024,-5.979 -0.617,-11.799 -1.83,-17.4l-133.85,77.28c9.288,8.509 20.569,14.864 33.06,18.321l100.078,-57.78c0.991,-3.87 1.709,-7.847 2.12,-11.918" style="fill:#36383b;fill-rule:nonzero;"/><path d="M141.888,191.902c-10.064,0 -18.224,-8.158 -18.224,-18.222c0,-10.063 8.16,-18.222 18.224,-18.222c10.064,0 18.222,8.159 18.222,18.222c0,10.064 -8.158,18.222 -18.222,18.222M196.706,113.958l-133.869,77.291c3.655,16.5 12.329,31.108 24.357,42.13l133.85,-77.281c-3.585,-16.54 -12.271,-31.148 -24.338,-42.14" style="fill:#ffd600;fill-rule:nonzero;"/><path d="M141.888,155.447c-10.064,0 -18.224,8.158 -18.224,18.222c0,10.063 8.16,18.222 18.224,18.222c10.064,0 18.222,-8.159 18.222,-18.222c0,-10.064 -8.158,-18.222 -18.222,-18.222" style="fill:#fff;fill-rule:nonzero;"/><path d="M86.383,187.954c-0.111,-0.658 -0.187,-1.314 -0.282,-1.971c-0.479,-2.451 -0.867,-4.951 -1.162,-7.495l-22.102,12.76c3.656,16.499 12.33,31.108 24.359,42.13l15.365,-8.871c-8.113,-10.299 -13.837,-22.716 -16.178,-36.553" style="fill:#ffcb03;fill-rule:nonzero;"/><path d="M94.219,118.001c14.016,-35.09 36.627,-65.036 64.512,-88.914c-31.477,18.893 -58.765,44.648 -78.438,76.91c-10.099,16.563 -15.95,32.867 -18.238,48.295l25.357,-14.64c1.614,-7.034 3.855,-14.26 6.807,-21.651" style="fill:#ffcb03;fill-rule:nonzero;"/><path d="M120.256,251.698c6.889,1.906 14.138,2.945 21.634,2.945c0.025,0 0.05,-0.002 0.076,-0.002c0.028,0 0.053,0.002 0.081,0.002c0.148,0 0.293,-0.011 0.442,-0.011c0.687,0.002 1.37,-0.041 2.055,-0.056c0.523,-0.017 1.049,-0.016 1.568,-0.042c1.81,-0.077 3.611,-0.235 5.406,-0.434c-7.819,-1.445 -15.31,-4.029 -22.258,-7.6l-9.004,5.198Z" style="fill:#ffcb03;fill-rule:nonzero;"/><path d="M87.412,139.652l-25.357,14.64c-0.879,5.934 -1.249,11.742 -1.105,17.38c-0.016,0.664 -0.05,1.323 -0.05,1.991c0,6.042 0.682,11.921 1.937,17.585l22.102,-12.76c-1.397,-12.014 -0.69,-25.05 2.473,-38.836" style="fill:#353435;fill-rule:nonzero;"/><path d="M102.561,224.507l-15.365,8.871c9.287,8.509 20.57,14.865 33.061,18.32l9.003,-5.199c-10.334,-5.312 -19.466,-12.81 -26.699,-21.992" style="fill:#353435;fill-rule:nonzero;"/></g></g></svg>